# xmcd
#
# Track frame offsets:
# 150
# 22225
# 54366
# 87713
# 103519
# 131810
# 169700
# 201096
# 217643
# 236643
# 262300
#
# Disc length: 3853 seconds
#
#
# Revision: 2
# Processed by: cddbd v1.5.2PL0 Copyright (c) Steve Scherf et al.
# Submitted via: jack 3.1.1
#
DISCID=9f0f0b0b
DTITLE=Sheila Burnford - The Incredible Journey Disc 2
DYEAR=1997
DGENRE=Speech
TTITLE0=Chapter 5 (pt.1)
TTITLE1=Chapter 5 (pt.2)
TTITLE2=Chapter 5 (pt.3)
TTITLE3=Chapter 5 (pt.4)
TTITLE4=Chapter 6 (pt.1)
TTITLE5=Chapter 6 (pt.2)
TTITLE6=Chapter 7 (pt.1)
TTITLE7=Chapter 7 (pt.2)
TTITLE8=Chapter 8 (pt.1)
TTITLE9=Chapter 8 (pt.2)
TTITLE10=Chapter 8 (pt.3)
EXTD=The Incredible Journy by Sheila Burnford\nread by Megan Follows Random House, Inc.\n3 CDs
EXTT0=
EXTT1=
EXTT2=
EXTT3=
EXTT4=
EXTT5=
EXTT6=
EXTT7=
EXTT8=
EXTT9=
EXTT10=
PLAYORDER=
